<svg width="100%" height="100%" viewBox="0 0 12 10" fill="none" xmlns="http://www.w3.org/2000/svg">
<path d="M11.7812 5.57086C11.7809 5.57127 11.7809 5.57127 11.7805 5.57167L7.88609 9.76522C7.59429 10.0793 7.12248 10.0781 6.8318 9.7624C6.54149 9.44667 6.54261 8.93619 6.83441 8.62207L9.44944 5.80635H0.745342C0.33354 5.80635 0 5.44546 0 4.9999C0 4.55433 0.33354 4.19344 0.745342 4.19344H9.44944L6.83478 1.37812C6.54298 1.06401 6.54186 0.553524 6.83217 0.237798C7.12248 -0.0779276 7.59466 -0.0791368 7.88646 0.234976L11.7809 4.42852C11.7812 4.42893 11.7812 4.42893 11.7816 4.42933C12.0734 4.74425 12.0723 5.25675 11.7812 5.57086Z" fill="currentColor"/>
</svg>
