<svg width="100%" height="100%" viewBox="0 0 25 22" fill="none" xmlns="http://www.w3.org/2000/svg">
<path fill-rule="evenodd" clip-rule="evenodd" d="M23.0911 21.9997H1.90907C0.439249 21.9997 -0.477455 20.4166 0.260863 19.1477L10.8519 0.947044C11.5871 -0.315681 13.4137 -0.315681 14.1489 0.947044L24.74 19.1477C25.4777 20.4166 24.5609 21.9997 23.0911 21.9997ZM22.769 19.5509L12.8278 2.4664C12.689 2.24502 12.3298 2.20297 12.1675 2.48062L2.22558 19.5608C2.12834 19.7723 2.24602 20.0988 2.5712 20.0994H22.4284C22.7461 20.0982 22.8799 19.7754 22.769 19.5509ZM13.431 13.7543C13.3666 14.1352 12.9529 14.4073 12.4995 14.4073C12.0461 14.4073 11.6317 14.1352 11.5679 13.7543L11.0055 9.15786C10.9764 8.98533 10.9628 8.82208 10.9634 8.66748C10.9634 8.66748 10.9634 8.65264 10.9634 8.61492C10.9634 7.76836 11.6509 7.08196 12.4989 7.08196C13.3468 7.08196 14.0343 7.76836 14.0343 8.61492C14.0343 8.63285 14.035 8.65017 14.0343 8.66748C14.0343 8.66748 14.0517 8.80723 13.9928 9.15786L13.431 13.7543ZM12.4989 15.7522C13.2886 15.7522 13.9284 16.391 13.9284 17.1794C13.9284 17.9679 13.2886 18.6067 12.4989 18.6067C11.7091 18.6067 11.0693 17.9679 11.0693 17.1794C11.0693 16.3916 11.7091 15.7522 12.4989 15.7522Z" fill="currentColor"/>
</svg>
