<?xml version="1.0" standalone="no"?>
<!DOCTYPE svg PUBLIC "-//W3C//DTD SVG 20010904//EN"
 "http://www.w3.org/TR/2001/REC-SVG-20010904/DTD/svg10.dtd">
<svg version="1.0" xmlns="http://www.w3.org/2000/svg"
 width="300.000000pt" height="300.000000pt" viewBox="0 0 300.000000 300.000000"
 preserveAspectRatio="xMidYMid meet">
<metadata>
Created by potrace 1.14, written by Peter Selinger 2001-2017
</metadata>
<g transform="translate(0.000000,300.000000) scale(0.100000,-0.100000)"
fill="#000000" stroke="none">
<path d="M1458 2424 c-21 -36 -38 -70 -38 -75 0 -5 -4 -9 -9 -9 -5 0 -11 -8
-14 -17 -3 -10 -22 -45 -41 -78 -20 -33 -40 -69 -45 -80 -6 -11 -24 -42 -41
-70 -16 -27 -33 -57 -37 -65 -4 -8 -40 -72 -80 -142 -40 -70 -73 -132 -73
-138 0 -5 -3 -10 -8 -10 -4 0 -18 -21 -32 -47 -14 -27 -60 -108 -102 -182 -43
-73 -78 -135 -78 -136 0 -1 -41 -74 -91 -161 -105 -181 -115 -199 -169 -297
-22 -40 -44 -79 -49 -87 -5 -8 -50 -86 -99 -172 l-90 -158 1135 0 c949 0 1134
2 1124 13 -6 8 -8 17 -4 20 3 4 1 7 -6 7 -7 0 -9 5 -6 10 3 6 -1 13 -9 16 -9
3 -16 15 -16 25 0 10 -5 19 -12 19 -6 0 -8 3 -5 6 4 4 -4 21 -16 38 -12 17
-22 34 -22 38 0 4 -7 15 -15 25 -16 19 -20 27 -20 41 0 5 -9 19 -20 32 -11 13
-20 28 -20 35 0 6 -9 21 -20 33 -11 12 -20 24 -20 27 1 19 -1 25 -12 37 -7 7
-31 47 -52 88 -21 41 -42 77 -45 80 -4 3 -15 21 -24 40 -9 19 -30 58 -47 85
-16 28 -33 57 -37 65 -4 8 -27 49 -51 90 -24 41 -56 97 -71 124 -14 27 -31 56
-36 65 -6 9 -33 56 -60 105 -28 48 -60 104 -72 125 -12 20 -28 50 -37 66 -8
17 -30 56 -48 87 -18 31 -96 167 -173 302 -77 135 -142 246 -145 246 -3 0 -22
-30 -42 -66z"/>
</g>
</svg>
