{
	"asset":{
		"generator":"Khronos glTF Blender I/O v3.6.28",
		"version":"2.0"
	},
	"scene":0,
	"scenes":[
		{
			"name":"Scene",
			"nodes":[
				0
			]
		}
	],
	"nodes":[
		{
			"mesh":0,
			"name":"Fish",
			"rotation":[
				-0.70710688829422,
				0,
				0,
				0.7071066498756409
			],
			"scale":[
				100,
				99.99999237060547,
				99.99999237060547
			]
		}
	],
	"materials":[
		{
			"name":"Bottom",
			"pbrMetallicRoughness":{
				"baseColorFactor":[
					0.5476795434951782,
					0.6400111317634583,
					0.5822811126708984,
					1
				],
				"metallicFactor":0.4000000059604645,
				"roughnessFactor":0.41508710384368896
			}
		},
		{
			"name":"Top",
			"pbrMetallicRoughness":{
				"baseColorFactor":[
					0.6400138139724731,
					0.28693100810050964,
					0.19257737696170807,
					1
				],
				"metallicFactor":0.4000000059604645,
				"roughnessFactor":0.41508710384368896
			}
		},
		{
			"name":"Fins",
			"pbrMetallicRoughness":{
				"baseColorFactor":[
					0.6400018930435181,
					0.5247901678085327,
					0.3213651776313782,
					1
				],
				"metallicFactor":0.4000000059604645,
				"roughnessFactor":0.41508710384368896
			}
		}
	],
	"meshes":[
		{
			"name":"Fish",
			"primitives":[
				{
					"attributes":{
						"POSITION":0,
						"NORMAL":1
					},
					"indices":2,
					"material":0
				},
				{
					"attributes":{
						"POSITION":3,
						"NORMAL":4
					},
					"indices":5,
					"material":1
				},
				{
					"attributes":{
						"POSITION":6,
						"NORMAL":7
					},
					"indices":8,
					"material":2
				}
			]
		}
	],
	"accessors":[
		{
			"bufferView":0,
			"componentType":5126,
			"count":396,
			"max":[
				0.004065311513841152,
				0.04059358313679695,
				0.006193882320076227
			],
			"min":[
				-0.004065311048179865,
				-0.030258778482675552,
				-0.009784990921616554
			],
			"type":"VEC3"
		},
		{
			"bufferView":1,
			"componentType":5126,
			"count":396,
			"type":"VEC3"
		},
		{
			"bufferView":2,
			"componentType":5123,
			"count":564,
			"type":"SCALAR"
		},
		{
			"bufferView":3,
			"componentType":5126,
			"count":194,
			"max":[
				0.0035130709875375032,
				0.04059358313679695,
				0.011192979291081429
			],
			"min":[
				-0.0035130709875375032,
				-0.02177489921450615,
				-0.0010147119173780084
			],
			"type":"VEC3"
		},
		{
			"bufferView":4,
			"componentType":5126,
			"count":194,
			"type":"VEC3"
		},
		{
			"bufferView":5,
			"componentType":5123,
			"count":282,
			"type":"SCALAR"
		},
		{
			"bufferView":6,
			"componentType":5126,
			"count":546,
			"max":[
				0.005767703056335449,
				0.04957614839076996,
				0.014666903764009476
			],
			"min":[
				-0.005767702590674162,
				-0.010695479810237885,
				-0.011992309242486954
			],
			"type":"VEC3"
		},
		{
			"bufferView":7,
			"componentType":5126,
			"count":546,
			"type":"VEC3"
		},
		{
			"bufferView":8,
			"componentType":5123,
			"count":786,
			"type":"SCALAR"
		}
	],
	"bufferViews":[
		{
			"buffer":0,
			"byteLength":4752,
			"byteOffset":0,
			"target":34962
		},
		{
			"buffer":0,
			"byteLength":4752,
			"byteOffset":4752,
			"target":34962
		},
		{
			"buffer":0,
			"byteLength":1128,
			"byteOffset":9504,
			"target":34963
		},
		{
			"buffer":0,
			"byteLength":2328,
			"byteOffset":10632,
			"target":34962
		},
		{
			"buffer":0,
			"byteLength":2328,
			"byteOffset":12960,
			"target":34962
		},
		{
			"buffer":0,
			"byteLength":564,
			"byteOffset":15288,
			"target":34963
		},
		{
			"buffer":0,
			"byteLength":6552,
			"byteOffset":15852,
			"target":34962
		},
		{
			"buffer":0,
			"byteLength":6552,
			"byteOffset":22404,
			"target":34962
		},
		{
			"buffer":0,
			"byteLength":1572,
			"byteOffset":28956,
			"target":34963
		}
	],
	"buffers":[
		{
			"byteLength":30528,
			"uri":"data:application/octet-stream;base64,"
		}
	]
}
