{
	"asset":{
		"generator":"Khronos glTF Blender I/O v3.6.28",
		"version":"2.0"
	},
	"scene":0,
	"scenes":[
		{
			"name":"Scene",
			"nodes":[
				0
			]
		}
	],
	"nodes":[
		{
			"mesh":0,
			"name":"Horse",
			"rotation":[
				-0.70710688829422,
				0,
				0,
				0.7071066498756409
			],
			"scale":[
				100,
				99.99999237060547,
				99.99999237060547
			]
		}
	],
	"materials":[
		{
			"name":"Main",
			"pbrMetallicRoughness":{
				"baseColorFactor":[
					0.15678811073303223,
					0.07128383219242096,
					0.02562250755727291,
					1
				],
				"metallicFactor":0.4000000059604645,
				"roughnessFactor":0.41508710384368896
			}
		},
		{
			"name":"Hair",
			"pbrMetallicRoughness":{
				"baseColorFactor":[
					0.03174261376261711,
					0.03174261376261711,
					0.03174261376261711,
					1
				],
				"metallicFactor":0.4000000059604645,
				"roughnessFactor":0.41508710384368896
			}
		},
		{
			"name":"Main_Dark",
			"pbrMetallicRoughness":{
				"baseColorFactor":[
					0.08854927867650986,
					0.04188090190291405,
					0.016523709520697594,
					1
				],
				"metallicFactor":0.4000000059604645,
				"roughnessFactor":0.41508710384368896
			}
		},
		{
			"name":"Muzzle",
			"pbrMetallicRoughness":{
				"baseColorFactor":[
					0.03756805881857872,
					0.0275163184851408,
					0.015405602753162384,
					1
				],
				"metallicFactor":0.4000000059604645,
				"roughnessFactor":0.41508710384368896
			}
		},
		{
			"name":"Hooves",
			"pbrMetallicRoughness":{
				"baseColorFactor":[
					0.11784902960062027,
					0.1054009199142456,
					0.08721166849136353,
					1
				],
				"metallicFactor":0.4000000059604645,
				"roughnessFactor":0.41508710384368896
			}
		},
		{
			"name":"Main_Light",
			"pbrMetallicRoughness":{
				"baseColorFactor":[
					0.2610971927642822,
					0.1162928119301796,
					0.04017951712012291,
					1
				],
				"metallicFactor":0.4000000059604645,
				"roughnessFactor":0.41508710384368896
			}
		},
		{
			"name":"Eye_Black",
			"pbrMetallicRoughness":{
				"baseColorFactor":[
					0.007214037235826254,
					0.007214037235826254,
					0.007214037235826254,
					1
				],
				"metallicFactor":0.4000000059604645,
				"roughnessFactor":0.41508710384368896
			}
		},
		{
			"name":"Eye_White",
			"pbrMetallicRoughness":{
				"baseColorFactor":[
					0.3895139694213867,
					0.3895139694213867,
					0.3895139694213867,
					1
				],
				"metallicFactor":0.4000000059604645,
				"roughnessFactor":0.41508710384368896
			}
		}
	],
	"meshes":[
		{
			"name":"Horse",
			"primitives":[
				{
					"attributes":{
						"POSITION":0,
						"NORMAL":1
					},
					"indices":2,
					"material":0
				},
				{
					"attributes":{
						"POSITION":3,
						"NORMAL":4
					},
					"indices":5,
					"material":1
				},
				{
					"attributes":{
						"POSITION":6,
						"NORMAL":7
					},
					"indices":8,
					"material":2
				},
				{
					"attributes":{
						"POSITION":9,
						"NORMAL":10
					},
					"indices":11,
					"material":3
				},
				{
					"attributes":{
						"POSITION":12,
						"NORMAL":13
					},
					"indices":14,
					"material":4
				},
				{
					"attributes":{
						"POSITION":15,
						"NORMAL":16
					},
					"indices":17,
					"material":5
				},
				{
					"attributes":{
						"POSITION":18,
						"NORMAL":19
					},
					"indices":20,
					"material":6
				},
				{
					"attributes":{
						"POSITION":21,
						"NORMAL":22
					},
					"indices":23,
					"material":7
				}
			]
		}
	],
	"accessors":[
		{
			"bufferView":0,
			"componentType":5126,
			"count":3120,
			"max":[
				0.007034682668745518,
				0.019364245235919952,
				0.04812726750969887
			],
			"min":[
				-0.007034681737422943,
				-0.033725716173648834,
				0.0008515656809322536
			],
			"type":"VEC3"
		},
		{
			"bufferView":1,
			"componentType":5126,
			"count":3120,
			"type":"VEC3"
		},
		{
			"bufferView":2,
			"componentType":5123,
			"count":4596,
			"type":"SCALAR"
		},
		{
			"bufferView":3,
			"componentType":5126,
			"count":518,
			"max":[
				0.002169969491660595,
				0.022232869639992714,
				0.04576300084590912
			],
			"min":[
				-0.002169969491660595,
				-0.029727209359407425,
				0.014485221356153488
			],
			"type":"VEC3"
		},
		{
			"bufferView":4,
			"componentType":5126,
			"count":518,
			"type":"VEC3"
		},
		{
			"bufferView":5,
			"componentType":5123,
			"count":762,
			"type":"SCALAR"
		},
		{
			"bufferView":6,
			"componentType":5126,
			"count":124,
			"max":[
				0.0025441418401896954,
				-0.02606625109910965,
				0.04473274201154709
			],
			"min":[
				-0.0025441423058509827,
				-0.0343293696641922,
				0.03614640235900879
			],
			"type":"VEC3"
		},
		{
			"bufferView":7,
			"componentType":5126,
			"count":124,
			"type":"VEC3"
		},
		{
			"bufferView":8,
			"componentType":5123,
			"count":180,
			"type":"SCALAR"
		},
		{
			"bufferView":9,
			"componentType":5126,
			"count":98,
			"max":[
				0.0016643870621919632,
				-0.031568512320518494,
				0.037031885236501694
			],
			"min":[
				-0.0016643870621919632,
				-0.0345282256603241,
				0.03372235968708992
			],
			"type":"VEC3"
		},
		{
			"bufferView":10,
			"componentType":5126,
			"count":98,
			"type":"VEC3"
		},
		{
			"bufferView":11,
			"componentType":5123,
			"count":150,
			"type":"SCALAR"
		},
		{
			"bufferView":12,
			"componentType":5126,
			"count":180,
			"max":[
				0.0054110754281282425,
				0.018158121034502983,
				0.002085037063807249
			],
			"min":[
				-0.0054110754281282425,
				-0.016549061983823776,
				-0.00011219273437745869
			],
			"type":"VEC3"
		},
		{
			"bufferView":13,
			"componentType":5126,
			"count":180,
			"type":"VEC3"
		},
		{
			"bufferView":14,
			"componentType":5123,
			"count":264,
			"type":"SCALAR"
		},
		{
			"bufferView":15,
			"componentType":5126,
			"count":318,
			"max":[
				0.0032889454159885645,
				-0.025917576625943184,
				0.04812726750969887
			],
			"min":[
				-0.0032889454159885645,
				-0.030187007039785385,
				0.04047653079032898
			],
			"type":"VEC3"
		},
		{
			"bufferView":16,
			"componentType":5126,
			"count":318,
			"type":"VEC3"
		},
		{
			"bufferView":17,
			"componentType":5123,
			"count":456,
			"type":"SCALAR"
		},
		{
			"bufferView":18,
			"componentType":5126,
			"count":98,
			"max":[
				0.0027903204318135977,
				-0.028759311884641647,
				0.041783399879932404
			],
			"min":[
				-0.0027903204318135977,
				-0.029666351154446602,
				0.04097553715109825
			],
			"type":"VEC3"
		},
		{
			"bufferView":19,
			"componentType":5126,
			"count":98,
			"type":"VEC3"
		},
		{
			"bufferView":20,
			"componentType":5123,
			"count":120,
			"type":"SCALAR"
		},
		{
			"bufferView":21,
			"componentType":5126,
			"count":14,
			"max":[
				0.002701851073652506,
				-0.028918731957674026,
				0.04171333461999893
			],
			"min":[
				-0.002701851073652506,
				-0.02939070761203766,
				0.04155048727989197
			],
			"type":"VEC3"
		},
		{
			"bufferView":22,
			"componentType":5126,
			"count":14,
			"type":"VEC3"
		},
		{
			"bufferView":23,
			"componentType":5123,
			"count":18,
			"type":"SCALAR"
		}
	],
	"bufferViews":[
		{
			"buffer":0,
			"byteLength":37440,
			"byteOffset":0,
			"target":34962
		},
		{
			"buffer":0,
			"byteLength":37440,
			"byteOffset":37440,
			"target":34962
		},
		{
			"buffer":0,
			"byteLength":9192,
			"byteOffset":74880,
			"target":34963
		},
		{
			"buffer":0,
			"byteLength":6216,
			"byteOffset":84072,
			"target":34962
		},
		{
			"buffer":0,
			"byteLength":6216,
			"byteOffset":90288,
			"target":34962
		},
		{
			"buffer":0,
			"byteLength":1524,
			"byteOffset":96504,
			"target":34963
		},
		{
			"buffer":0,
			"byteLength":1488,
			"byteOffset":98028,
			"target":34962
		},
		{
			"buffer":0,
			"byteLength":1488,
			"byteOffset":99516,
			"target":34962
		},
		{
			"buffer":0,
			"byteLength":360,
			"byteOffset":101004,
			"target":34963
		},
		{
			"buffer":0,
			"byteLength":1176,
			"byteOffset":101364,
			"target":34962
		},
		{
			"buffer":0,
			"byteLength":1176,
			"byteOffset":102540,
			"target":34962
		},
		{
			"buffer":0,
			"byteLength":300,
			"byteOffset":103716,
			"target":34963
		},
		{
			"buffer":0,
			"byteLength":2160,
			"byteOffset":104016,
			"target":34962
		},
		{
			"buffer":0,
			"byteLength":2160,
			"byteOffset":106176,
			"target":34962
		},
		{
			"buffer":0,
			"byteLength":528,
			"byteOffset":108336,
			"target":34963
		},
		{
			"buffer":0,
			"byteLength":3816,
			"byteOffset":108864,
			"target":34962
		},
		{
			"buffer":0,
			"byteLength":3816,
			"byteOffset":112680,
			"target":34962
		},
		{
			"buffer":0,
			"byteLength":912,
			"byteOffset":116496,
			"target":34963
		},
		{
			"buffer":0,
			"byteLength":1176,
			"byteOffset":117408,
			"target":34962
		},
		{
			"buffer":0,
			"byteLength":1176,
			"byteOffset":118584,
			"target":34962
		},
		{
			"buffer":0,
			"byteLength":240,
			"byteOffset":119760,
			"target":34963
		},
		{
			"buffer":0,
			"byteLength":168,
			"byteOffset":120000,
			"target":34962
		},
		{
			"buffer":0,
			"byteLength":168,
			"byteOffset":120168,
			"target":34962
		},
		{
			"buffer":0,
			"byteLength":36,
			"byteOffset":120336,
			"target":34963
		}
	],
	"buffers":[
		{
			"byteLength":120372,
			"uri":"data:application/octet-stream;base64,"
		}
	]
}
