{
	"asset":{
		"generator":"Khronos glTF Blender I/O v3.6.28",
		"version":"2.0"
	},
	"scene":0,
	"scenes":[
		{
			"name":"Scene",
			"nodes":[
				0
			]
		}
	],
	"nodes":[
		{
			"mesh":0,
			"name":"Cow",
			"rotation":[
				-0.70710688829422,
				0,
				0,
				0.7071066498756409
			],
			"scale":[
				100,
				99.99999237060547,
				99.99999237060547
			]
		}
	],
	"materials":[
		{
			"name":"Main",
			"pbrMetallicRoughness":{
				"baseColorFactor":[
					0.0217678714543581,
					0.0217678714543581,
					0.0217678714543581,
					1
				],
				"metallicFactor":0.4000000059604645,
				"roughnessFactor":0.41508710384368896
			}
		},
		{
			"name":"Muzzle",
			"pbrMetallicRoughness":{
				"baseColorFactor":[
					0.035563234239816666,
					0.0246619563549757,
					0.016688330098986626,
					1
				],
				"metallicFactor":0.4000000059604645,
				"roughnessFactor":0.41508710384368896
			}
		},
		{
			"name":"Hooves",
			"pbrMetallicRoughness":{
				"baseColorFactor":[
					0.13868147134780884,
					0.07911986857652664,
					0.024846820160746574,
					1
				],
				"metallicFactor":0.4000000059604645,
				"roughnessFactor":0.41508710384368896
			}
		},
		{
			"name":"Main_Light",
			"pbrMetallicRoughness":{
				"baseColorFactor":[
					0.07434102892875671,
					0.07880320399999619,
					0.06645228713750839,
					1
				],
				"metallicFactor":0.4000000059604645,
				"roughnessFactor":0.41508710384368896
			}
		},
		{
			"name":"Eye_Black",
			"pbrMetallicRoughness":{
				"baseColorFactor":[
					0.007214037235826254,
					0.007214037235826254,
					0.007214037235826254,
					1
				],
				"metallicFactor":0.4000000059604645,
				"roughnessFactor":0.41508710384368896
			}
		},
		{
			"name":"Eye_White",
			"pbrMetallicRoughness":{
				"baseColorFactor":[
					0.800000011920929,
					0.800000011920929,
					0.800000011920929,
					1
				],
				"metallicFactor":0.4000000059604645,
				"roughnessFactor":0.41508710384368896
			}
		},
		{
			"name":"Horns",
			"pbrMetallicRoughness":{
				"baseColorFactor":[
					0.32874760031700134,
					0.2851494252681732,
					0.1411765068769455,
					1
				],
				"metallicFactor":0.4000000059604645,
				"roughnessFactor":0.41508710384368896
			}
		}
	],
	"meshes":[
		{
			"name":"Cow",
			"primitives":[
				{
					"attributes":{
						"POSITION":0,
						"NORMAL":1
					},
					"indices":2,
					"material":0
				},
				{
					"attributes":{
						"POSITION":3,
						"NORMAL":4
					},
					"indices":5,
					"material":1
				},
				{
					"attributes":{
						"POSITION":6,
						"NORMAL":7
					},
					"indices":8,
					"material":2
				},
				{
					"attributes":{
						"POSITION":9,
						"NORMAL":10
					},
					"indices":11,
					"material":3
				},
				{
					"attributes":{
						"POSITION":12,
						"NORMAL":13
					},
					"indices":14,
					"material":4
				},
				{
					"attributes":{
						"POSITION":15,
						"NORMAL":16
					},
					"indices":17,
					"material":5
				},
				{
					"attributes":{
						"POSITION":18,
						"NORMAL":19
					},
					"indices":20,
					"material":6
				}
			]
		}
	],
	"accessors":[
		{
			"bufferView":0,
			"componentType":5126,
			"count":3474,
			"max":[
				0.012567234225571156,
				0.029460709542036057,
				0.04531165957450867
			],
			"min":[
				-0.012567232362926006,
				-0.050193458795547485,
				0.00036314138560555875
			],
			"type":"VEC3"
		},
		{
			"bufferView":1,
			"componentType":5126,
			"count":3474,
			"type":"VEC3"
		},
		{
			"bufferView":2,
			"componentType":5123,
			"count":5136,
			"type":"SCALAR"
		},
		{
			"bufferView":3,
			"componentType":5126,
			"count":70,
			"max":[
				0.0025365364272147417,
				-0.04802278056740761,
				0.03227634355425835
			],
			"min":[
				-0.0025365317706018686,
				-0.05087366700172424,
				0.028169581666588783
			],
			"type":"VEC3"
		},
		{
			"bufferView":4,
			"componentType":5126,
			"count":70,
			"type":"VEC3"
		},
		{
			"bufferView":5,
			"componentType":5123,
			"count":102,
			"type":"SCALAR"
		},
		{
			"bufferView":6,
			"componentType":5126,
			"count":300,
			"max":[
				0.00986286997795105,
				0.026427816599607468,
				0.004907377064228058
			],
			"min":[
				-0.009862867183983326,
				-0.023417897522449493,
				-0.0005550627829506993
			],
			"type":"VEC3"
		},
		{
			"bufferView":7,
			"componentType":5126,
			"count":300,
			"type":"VEC3"
		},
		{
			"bufferView":8,
			"componentType":5123,
			"count":432,
			"type":"SCALAR"
		},
		{
			"bufferView":9,
			"componentType":5126,
			"count":420,
			"max":[
				0.012567234225571156,
				0.029796114191412926,
				0.0420890748500824
			],
			"min":[
				-0.012567232362926006,
				-0.04529225081205368,
				0.017318032681941986
			],
			"type":"VEC3"
		},
		{
			"bufferView":10,
			"componentType":5126,
			"count":420,
			"type":"VEC3"
		},
		{
			"bufferView":11,
			"componentType":5123,
			"count":624,
			"type":"SCALAR"
		},
		{
			"bufferView":12,
			"componentType":5126,
			"count":100,
			"max":[
				0.006352517753839493,
				-0.0421750545501709,
				0.03903285786509514
			],
			"min":[
				-0.006352514494210482,
				-0.04420250654220581,
				0.037220560014247894
			],
			"type":"VEC3"
		},
		{
			"bufferView":13,
			"componentType":5126,
			"count":100,
			"type":"VEC3"
		},
		{
			"bufferView":14,
			"componentType":5123,
			"count":132,
			"type":"SCALAR"
		},
		{
			"bufferView":15,
			"componentType":5126,
			"count":12,
			"max":[
				0.006184733938425779,
				-0.04288818687200546,
				0.03892088308930397
			],
			"min":[
				-0.006184729281812906,
				-0.04360033571720123,
				0.03854912146925926
			],
			"type":"VEC3"
		},
		{
			"bufferView":16,
			"componentType":5126,
			"count":12,
			"type":"VEC3"
		},
		{
			"bufferView":17,
			"componentType":5123,
			"count":12,
			"type":"SCALAR"
		},
		{
			"bufferView":18,
			"componentType":5126,
			"count":546,
			"max":[
				0.011376902461051941,
				-0.038081951439380646,
				0.04472150653600693
			],
			"min":[
				-0.011376896873116493,
				-0.0450034961104393,
				0.040724318474531174
			],
			"type":"VEC3"
		},
		{
			"bufferView":19,
			"componentType":5126,
			"count":546,
			"type":"VEC3"
		},
		{
			"bufferView":20,
			"componentType":5123,
			"count":816,
			"type":"SCALAR"
		}
	],
	"bufferViews":[
		{
			"buffer":0,
			"byteLength":41688,
			"byteOffset":0,
			"target":34962
		},
		{
			"buffer":0,
			"byteLength":41688,
			"byteOffset":41688,
			"target":34962
		},
		{
			"buffer":0,
			"byteLength":10272,
			"byteOffset":83376,
			"target":34963
		},
		{
			"buffer":0,
			"byteLength":840,
			"byteOffset":93648,
			"target":34962
		},
		{
			"buffer":0,
			"byteLength":840,
			"byteOffset":94488,
			"target":34962
		},
		{
			"buffer":0,
			"byteLength":204,
			"byteOffset":95328,
			"target":34963
		},
		{
			"buffer":0,
			"byteLength":3600,
			"byteOffset":95532,
			"target":34962
		},
		{
			"buffer":0,
			"byteLength":3600,
			"byteOffset":99132,
			"target":34962
		},
		{
			"buffer":0,
			"byteLength":864,
			"byteOffset":102732,
			"target":34963
		},
		{
			"buffer":0,
			"byteLength":5040,
			"byteOffset":103596,
			"target":34962
		},
		{
			"buffer":0,
			"byteLength":5040,
			"byteOffset":108636,
			"target":34962
		},
		{
			"buffer":0,
			"byteLength":1248,
			"byteOffset":113676,
			"target":34963
		},
		{
			"buffer":0,
			"byteLength":1200,
			"byteOffset":114924,
			"target":34962
		},
		{
			"buffer":0,
			"byteLength":1200,
			"byteOffset":116124,
			"target":34962
		},
		{
			"buffer":0,
			"byteLength":264,
			"byteOffset":117324,
			"target":34963
		},
		{
			"buffer":0,
			"byteLength":144,
			"byteOffset":117588,
			"target":34962
		},
		{
			"buffer":0,
			"byteLength":144,
			"byteOffset":117732,
			"target":34962
		},
		{
			"buffer":0,
			"byteLength":24,
			"byteOffset":117876,
			"target":34963
		},
		{
			"buffer":0,
			"byteLength":6552,
			"byteOffset":117900,
			"target":34962
		},
		{
			"buffer":0,
			"byteLength":6552,
			"byteOffset":124452,
			"target":34962
		},
		{
			"buffer":0,
			"byteLength":1632,
			"byteOffset":131004,
			"target":34963
		}
	],
	"buffers":[
		{
			"byteLength":132636,
			"uri":"data:application/octet-stream;base64,"
		}
	]
}
